// SSTR - Sample start
<region> sample=CVPREC021.wav
pan=-32
key=0
pitch_keycenter=21
ampeg_release=0.900

<region> sample=CVPREC021.wav
pan=-31
key=1
pitch_keycenter=21
ampeg_release=0.900

<region> sample=CVPREC021.wav
pan=-31
key=2
pitch_keycenter=21
ampeg_release=0.900

<region> sample=CVPREC021.wav
pan=-30
key=3
pitch_keycenter=21
ampeg_release=0.900

<region> sample=CVPREC021.wav
pan=-30
key=4
pitch_keycenter=21
ampeg_release=0.900

<region> sample=CVPREC021.wav
pan=-29
key=5
pitch_keycenter=21
ampeg_release=0.900

<region> sample=CVPREC021.wav
pan=-29
key=6
pitch_keycenter=21
ampeg_release=0.900

<region> sample=CVPREC021.wav
pan=-28
key=7
pitch_keycenter=21
ampeg_release=0.900

<region> sample=CVPREC021.wav
pan=-28
key=8
pitch_keycenter=21
ampeg_release=0.900

<region> sample=CVPREC021.wav
pan=-27
key=9
pitch_keycenter=21
ampeg_release=0.900

<region> sample=CVPREC021.wav
pan=-27
key=10
pitch_keycenter=21
ampeg_release=0.900

<region> sample=CVPREC021.wav
pan=-26
key=11
pitch_keycenter=21
ampeg_release=0.900

<region> sample=CVPREC021.wav
pan=-26
key=12
pitch_keycenter=21
ampeg_release=0.900

<region> sample=CVPREC021.wav
pan=-25
key=13
pitch_keycenter=21
ampeg_release=0.900

<region> sample=CVPREC021.wav
pan=-25
key=14
pitch_keycenter=21
ampeg_release=0.900

<region> sample=CVPREC021.wav
pan=-24
key=15
pitch_keycenter=21
ampeg_release=0.900

<region> sample=CVPREC021.wav
pan=-24
key=16
pitch_keycenter=21
ampeg_release=0.900

<region> sample=CVPREC021.wav
pan=-23
key=17
pitch_keycenter=21
ampeg_release=0.900

<region> sample=CVPREC021.wav
pan=-23
key=18
pitch_keycenter=21
ampeg_release=0.900

<region> sample=CVPREC021.wav
pan=-22
key=19
pitch_keycenter=21
ampeg_release=0.900

<region> sample=CVPREC021.wav
pan=-22
key=20
pitch_keycenter=21
ampeg_release=0.900

<region> sample=CVPREC021.wav
pan=-21
key=21
ampeg_release=0.900

<region> sample=CVPREC022.wav
pan=-21
key=22
ampeg_release=0.900

<region> sample=CVPREC023.wav
pan=-20
key=23
ampeg_release=0.900

<region> sample=CVPREC024.wav
pan=-20
key=24
ampeg_release=0.900

<region> sample=CVPREC025.wav
pan=-19
key=25
ampeg_release=0.900

<region> sample=CVPREC026.wav
pan=-19
key=26
ampeg_release=0.900

<region> sample=CVPREC027.wav
pan=-18
key=27
ampeg_release=0.900

<region> sample=CVPREC028.wav
pan=-18
key=28
ampeg_release=0.900

<region> sample=CVPREC029.wav
pan=-17
key=29
ampeg_release=0.900

<region> sample=CVPREC030.wav
pan=-17
key=30
ampeg_release=0.900

<region> sample=CVPREC031.wav
pan=-16
key=31
ampeg_release=0.900

<region> sample=CVPREC032.wav
pan=-16
key=32 
ampeg_release=0.900

<region> sample=CVPREC033.wav
pan=-15
key=33
ampeg_release=0.900

<region> sample=CVPREC034.wav
pan=-15
key=34
ampeg_release=0.900

<region> sample=CVPREC035.wav
pan=-14
key=35
ampeg_release=0.900

<region> sample=CVPREC036.wav
pan=-14
key=36
ampeg_release=0.900

<region> sample=CVPREC037.wav
pan=-13
key=37
ampeg_release=0.900

<region> sample=CVPREC038.wav
pan=-13
key=38
ampeg_release=0.900

<region> sample=CVPREC039.wav
pan=-12
key=39
ampeg_release=0.900

<region> sample=CVPREC040.wav
pan=-12
key=40
ampeg_release=0.900

<region> sample=CVPREC041.wav
pan=-11
key=41
ampeg_release=0.900

<region> sample=CVPREC042.wav
pan=-11
key=42
ampeg_release=0.900

<region> sample=CVPREC043.wav
pan=-10
key=43
ampeg_release=0.900

<region> sample=CVPREC044.wav
pan=-10
key=44
ampeg_release=0.900

<region> sample=CVPREC045.wav
pan=-9
key=45
ampeg_release=0.900

<region> sample=CVPREC046.wav
pan=-9
key=46
ampeg_release=0.900

<region> sample=CVPREC047.wav
pan=-8
key=47
ampeg_release=0.900

<region> sample=CVPREC048.wav
pan=-8
key=48
ampeg_release=0.900

<region> sample=CVPREC049.wav
pan=-7
key=49
ampeg_release=0.900

<region> sample=CVPREC050.wav
pan=-7
key=50
ampeg_release=0.900

<region> sample=CVPREC051.wav
pan=-6
key=51
ampeg_release=0.900

<region> sample=CVPREC052.wav
pan=-6
key=52
ampeg_release=0.900

<region> sample=CVPREC053.wav
pan=-5
key=53
ampeg_release=0.900

<region> sample=CVPREC054.wav
pan=-5
key=54
ampeg_release=0.900

<region> sample=CVPREC055.wav
pan=-4
key=55
ampeg_release=0.900

<region> sample=CVPREC056.wav
pan=-4
key=56
ampeg_release=0.900

<region> sample=CVPREC057.wav
pan=-3
key=57
ampeg_release=0.900

<region> sample=CVPREC058.wav
pan=-3
key=58
ampeg_release=0.900

<region> sample=CVPREC059.wav
pan=-2
key=59
ampeg_release=0.900

<region> sample=CVPREC060.wav
pan=-2
key=60
ampeg_release=0.900

<region> sample=CVPREC061.wav
pan=-1
key=61
ampeg_release=0.900

<region> sample=CVPREC062.wav
pan=-1
key=62
ampeg_release=0.900

<region> sample=CVPREC063.wav
pan=0
key=63
ampeg_release=0.900

<region> sample=CVPREC064.wav
pan=0
key=64
ampeg_release=0.900

<region> sample=CVPREC065.wav
pan=0
key=65
ampeg_release=0.900

<region> sample=CVPREC066.wav
pan=1
key=66
ampeg_release=0.900

<region> sample=CVPREC067.wav
pan=1
key=67
ampeg_release=0.900

<region> sample=CVPREC068.wav
pan=2
key=68
ampeg_release=0.900

<region> sample=CVPREC069.wav
pan=2
key=69
ampeg_release=0.900

<region> sample=CVPREC070.wav
pan=3
key=70
ampeg_release=0.900

<region> sample=CVPREC071.wav
pan=3
key=71
ampeg_release=0.900

<region> sample=CVPREC072.wav
pan=4
key=72
ampeg_release=1.100

<region> sample=CVPREC073.wav
pan=4
key=73
ampeg_release=1.300

<region> sample=CVPREC074.wav
pan=5
key=74
ampeg_release=1.500

<region> sample=CVPREC075.wav
pan=5
key=75
ampeg_release=1.750

<region> sample=CVPREC076.wav
pan=6
key=76
ampeg_release=1.750

<region> sample=CVPREC077.wav
pan=6
key=77
ampeg_release=2.120

<region> sample=CVPREC078.wav
pan=7
key=78
ampeg_release=2.120

<region> sample=CVPREC079.wav
pan=7
key=79
ampeg_release=2.120

<region> sample=CVPREC080.wav
pan=8
key=80
ampeg_release=2.120

<region> sample=CVPREC081.wav
pan=8
key=81
ampeg_release=2.350

<region> sample=CVPREC082.wav
pan=9
key=82
ampeg_release=2.350

<region> sample=CVPREC083.wav
pan=9
key=83
ampeg_release=2.350

<region> sample=CVPREC084.wav
pan=10
key=84
ampeg_release=2.850

<region> sample=CVPREC085.wav
pan=10
key=85
ampeg_release=2.850

<region> sample=CVPREC086.wav
pan=11
key=86
ampeg_release=3.000

<region> sample=CVPREC087.wav
pan=11
key=87
ampeg_release=3.000

<region> sample=CVPREC088.wav
pan=12
key=88
ampeg_release=3.000

<region> sample=CVPREC089.wav
pan=13
key=89
ampeg_release=3.000

<region> sample=CVPREC090.wav
pan=14
key=90
ampeg_release=3.000

<region> sample=CVPREC091.wav
pan=14
key=91
ampeg_release=3.000

<region> sample=CVPREC092.wav
pan=15
key=92
ampeg_release=3.000

<region> sample=CVPREC093.wav
pan=15
key=93
ampeg_release=3.210

<region> sample=CVPREC094.wav
pan=16
key=94
ampeg_release=3.210

<region> sample=CVPREC095.wav
pan=16
key=95
ampeg_release=3.210

<region> sample=CVPREC096.wav
pan=17
key=96
ampeg_release=3.210

<region> sample=CVPREC097.wav
pan=17
key=97
ampeg_release=3.210

<region> sample=CVPREC098.wav
pan=18
key=98
ampeg_release=3.210

<region> sample=CVPREC099.wav
pan=18
key=99
ampeg_release=3.210

<region> sample=CVPREC100.wav
pan=19
key=100
ampeg_release=3.500

<region> sample=CVPREC101.wav
pan=19
key=101
ampeg_release=3.500

<region> sample=CVPREC102.wav
pan=20
key=102
ampeg_release=3.500

<region> sample=CVPREC103.wav
pan=20
key=103
ampeg_release=3.500

<region> sample=CVPREC104.wav
pan=21
key=104
ampeg_release=3.500

<region> sample=CVPREC105.wav
pan=21
key=105
ampeg_release=3.500

<region> sample=CVPREC106.wav
pan=22
key=106
ampeg_release=3.500

<region> sample=CVPREC107.wav
pan=22
key=107
ampeg_release=3.500

<region> sample=CVPREC108.wav
pan=23
key=108
pitch_keycenter=108
ampeg_release=3.500

<region> sample=CVPREC108.wav
pan=23
key=109
pitch_keycenter=108
ampeg_release=3.500

<region> sample=CVPREC108.wav
pan=24
key=110
pitch_keycenter=108
ampeg_release=3.500

<region> sample=CVPREC108.wav
pan=24
key=111
pitch_keycenter=108
ampeg_release=3.500

<region> sample=CVPREC108.wav
pan=25
key=112
pitch_keycenter=108
ampeg_release=3.500

<region> sample=CVPREC108.wav
pan=25
key=113
pitch_keycenter=108
ampeg_release=3.500

<region> sample=CVPREC108.wav
pan=26
key=114
pitch_keycenter=108
ampeg_release=3.500

<region> sample=CVPREC108.wav
pan=26
key=115
pitch_keycenter=108
ampeg_release=3.500

<region> sample=CVPREC108.wav
pan=27
key=116
pitch_keycenter=108
ampeg_release=3.500

<region> sample=CVPREC108.wav
pan=27
key=117
pitch_keycenter=108
ampeg_release=3.500

<region> sample=CVPREC108.wav
pan=28
key=118
pitch_keycenter=108
ampeg_release=3.500

<region> sample=CVPREC108.wav
pan=28
key=119
pitch_keycenter=108
ampeg_release=3.500

<region> sample=CVPREC108.wav
pan=29
key=120
pitch_keycenter=108
ampeg_release=3.500

<region> sample=CVPREC108.wav
pan=29
key=121
pitch_keycenter=108
ampeg_release=3.500

<region> sample=CVPREC108.wav
pan=30
key=122
pitch_keycenter=108
ampeg_release=3.500

<region> sample=CVPREC108.wav
pan=30
key=123
pitch_keycenter=108
ampeg_release=3.500

<region> sample=CVPREC108.wav
pan=31
key=124
pitch_keycenter=108
ampeg_release=3.500

<region> sample=CVPREC108.wav
pan=31
key=125
pitch_keycenter=108
ampeg_release=3.500

<region> sample=CVPREC108.wav
pan=32
key=126
pitch_keycenter=108
ampeg_release=3.500

<region> sample=CVPREC108.wav
pan=32
key=127
pitch_keycenter=108
ampeg_release=3.500
// ESTR - Sample end